<svg enable-background="new 0 0 60 44" height="44" viewBox="0 0 60 44" width="60" xmlns="http://www.w3.org/2000/svg"><path d="m0 0h60v44h-60z" fill="none"/><path d="m5.6949 23.5715h-3.3633l-.8496 2.4199h-1.1074l3.1172-8.4551h1.043l3.1172 8.4551h-1.1075zm-3.0527-.8965h2.7422l-1.3242-3.7734h-.0938zm8.3349-3.1113c1.3242 0 2.2441.6562 2.3789 1.6934h-.996c-.1348-.5039-.627-.8379-1.3887-.8379-.75 0-1.3359.3809-1.3359.9434 0 .4336.3516.7031 1.0957.8848l.9727.2344c1.1895.2871 1.7637.8027 1.7637 1.7109 0 1.1309-1.0957 1.9102-2.5312 1.9102-1.4062 0-2.373-.6738-2.4844-1.7227h1.0371c.1699.5332.6738.873 1.4824.873.8496 0 1.459-.4043 1.459-.9844 0-.4336-.3281-.7266-1.002-.8906l-1.084-.2637c-1.1836-.2871-1.7227-.7969-1.7227-1.7109 0-1.0489 1.0137-1.8399 2.3554-1.8399zm6.044 0c1.3242 0 2.2441.6562 2.3789 1.6934h-.9961c-.1348-.5039-.627-.8379-1.3887-.8379-.75 0-1.3359.3809-1.3359.9434 0 .4336.3516.7031 1.0957.8848l.9727.2344c1.1895.2871 1.7637.8027 1.7637 1.7109 0 1.1309-1.0957 1.9102-2.5312 1.9102-1.4062 0-2.373-.6738-2.4844-1.7227h1.0371c.1699.5332.6738.873 1.4824.873.8496 0 1.459-.4043 1.459-.9844 0-.4336-.3281-.7266-1.002-.8906l-1.084-.2637c-1.1836-.2871-1.7227-.7969-1.7227-1.7109 0-1.0489 1.0137-1.8399 2.3555-1.8399zm3.7768-1.8106c0-.3867.3164-.7031.7031-.7031s.7031.3164.7031.7031-.3164.7031-.7031.7031-.7031-.3164-.7031-.7031zm.1993 1.9219h1.0078v6.3164h-1.0078zm5.0185-.1113c1.3242 0 2.2441.6562 2.3789 1.6934h-.9961c-.1348-.5039-.627-.8379-1.3887-.8379-.75 0-1.3359.3809-1.3359.9434 0 .4336.3516.7031 1.0957.8848l.9727.2344c1.1895.2871 1.7637.8027 1.7637 1.7109 0 1.1309-1.0957 1.9102-2.5312 1.9102-1.4062 0-2.373-.6738-2.4844-1.7227h1.0371c.1699.5332.6738.873 1.4824.873.8496 0 1.459-.4043 1.459-.9844 0-.4336-.3281-.7266-1.002-.8906l-1.084-.2637c-1.1836-.2871-1.7227-.7969-1.7227-1.7109.0001-1.0489 1.0137-1.8399 2.3555-1.8399zm5.3233-1.5235v1.6348h1.4063v.8438h-1.4063v3.5742c0 .7441.2812 1.0605.9375 1.0605.1816 0 .2812-.0059.4688-.0234v.8496c-.1992.0352-.3926.0586-.5918.0586-1.3008 0-1.8223-.4805-1.8223-1.6875v-3.832h-1.0195v-.8438h1.0195v-1.6348zm2.4345 6.1817c0-1.1309.832-1.7812 2.3027-1.8691l1.8223-.1113v-.5742c0-.7793-.4863-1.207-1.4297-1.207-.7559 0-1.2832.2871-1.4238.7852h-1.0195c.1348-1.0137 1.1309-1.6816 2.4785-1.6816 1.541 0 2.4023.791 2.4023 2.1035v4.3242h-.9609v-.9316h-.0938c-.4102.6738-1.1016 1.043-1.9453 1.043-1.2246-.0003-2.1328-.7268-2.1328-1.8811zm4.125-.586v-.5801l-1.6992.1113c-.9609.0645-1.3828.3984-1.3828 1.0312 0 .6445.5449 1.0195 1.2773 1.0195 1.0372.0002 1.8047-.6795 1.8047-1.5819zm2.7515-3.9609h.9609v.9961h.0938c.3164-.6973.9316-1.1074 1.8984-1.1074 1.418 0 2.209.8379 2.209 2.3379v4.0898h-1.0078v-3.8438c0-1.1367-.4805-1.6758-1.4883-1.6758s-1.6582.6738-1.6582 1.7812v3.7383h-1.0078zm11.0889 1.9336c-.1641-.627-.7207-1.1367-1.6289-1.1367-1.1367 0-1.8516.9082-1.8516 2.3379 0 1.459.7266 2.3848 1.8516 2.3848.8496 0 1.4414-.3926 1.6289-1.1074h1.0195c-.1816 1.1602-1.125 2.0156-2.6426 2.0156-1.7695 0-2.9004-1.2832-2.9004-3.293 0-1.9688 1.125-3.2461 2.8945-3.2461 1.5352 0 2.4727.9199 2.6484 2.0449zm7.5791 2.748c-.293 1.0781-1.2773 1.7461-2.6602 1.7461-1.752 0-2.8477-1.2656-2.8477-3.2637 0-1.9863 1.1133-3.2754 2.8477-3.2754 1.7051 0 2.7422 1.2129 2.7422 3.1758v.3867h-4.541v.0469c.0527 1.248.75 2.0391 1.8223 2.0391.8145 0 1.3652-.2988 1.6289-.8555zm-4.459-2.0449h3.4805c-.0234-1.1191-.6914-1.8574-1.6934-1.8574-1.0078 0-1.7109.7383-1.7871 1.8574z" fill="#fff"/></svg>