<svg enable-background="new 0 0 99 44" height="44" viewBox="0 0 99 44" width="99" xmlns="http://www.w3.org/2000/svg"><path d="m5.2442 25.97h-5.2383v-8.4551h5.2383v.9492h-4.1836v2.7129h3.9668v.9375h-3.9668v2.9062h4.1836zm3.7998-2.3672-1.5 2.3848h-1.1426l2.1621-3.1582-2.1855-3.1582h1.2012l1.5 2.3496h.0938l1.4824-2.3496h1.1426l-2.1445 3.1172 2.1738 3.1992h-1.1953l-1.4941-2.3848zm7.9482-2.0156c-.1641-.627-.7207-1.1367-1.6289-1.1367-1.1367 0-1.8516.9082-1.8516 2.3379 0 1.459.7266 2.3848 1.8516 2.3848.8496 0 1.4414-.3926 1.6289-1.1074h1.0195c-.1816 1.1602-1.125 2.0156-2.6426 2.0156-1.7695 0-2.9004-1.2832-2.9004-3.293 0-1.9688 1.125-3.2461 2.8945-3.2461 1.5352 0 2.4727.9199 2.6484 2.0449zm2.4468-4.4414h1.0078v8.8242h-1.0078zm7.9541 8.8242h-.9609v-.9902h-.0938c-.3164.7031-.9902 1.1016-1.957 1.1016-1.418 0-2.1562-.8438-2.1562-2.3379v-4.0898h1.0078v3.8438c0 1.1367.4219 1.6641 1.4297 1.6641 1.1133 0 1.7227-.6621 1.7227-1.7695v-3.7383h1.0078v6.3162zm3.9873-6.4277c1.3242 0 2.2441.6562 2.3789 1.6934h-.9961c-.1348-.5039-.627-.8379-1.3887-.8379-.75 0-1.3359.3809-1.3359.9434 0 .4336.3516.7031 1.0957.8848l.9727.2344c1.1895.2871 1.7637.8027 1.7637 1.7109 0 1.1309-1.0957 1.9102-2.5312 1.9102-1.4062 0-2.373-.6738-2.4844-1.7227h1.0371c.1699.5332.6738.873 1.4824.873.8496 0 1.459-.4043 1.459-.9844 0-.4336-.3281-.7266-1.002-.8906l-1.084-.2637c-1.1836-.2871-1.7227-.7969-1.7227-1.7109 0-1.0489 1.0137-1.8399 2.3555-1.8399zm3.7764-1.8106c0-.3867.3164-.7031.7031-.7031s.7031.3164.7031.7031-.3164.7031-.7031.7031-.7031-.3164-.7031-.7031zm.1992 1.9219h1.0078v6.3164h-1.0078zm5.6284 6.3164h-1.0312l-2.3379-6.3164h1.0781l1.7285 5.2031h.0938l1.7285-5.2031h1.0781zm3.3896-8.2383c0-.3867.3164-.7031.7031-.7031s.7031.3164.7031.7031-.3164.7031-.7031.7031-.7031-.3164-.7031-.7031zm.1993 1.9219h1.0078v6.3164h-1.0078zm4.2392-1.6348v1.6348h1.4062v.8438h-1.4062v3.5742c0 .7441.2812 1.0605.9375 1.0605.1816 0 .2812-.0059.4688-.0234v.8496c-.1992.0352-.3926.0586-.5918.0586-1.3008 0-1.8223-.4805-1.8223-1.6875v-3.832h-1.0195v-.8438h1.0195v-1.6348zm7.9131 6.3164c-.293 1.0781-1.2773 1.7461-2.6602 1.7461-1.752 0-2.8477-1.2656-2.8477-3.2637 0-1.9863 1.1133-3.2754 2.8477-3.2754 1.7051 0 2.7422 1.2129 2.7422 3.1758v.3867h-4.541v.0469c.0527 1.248.75 2.0391 1.8223 2.0391.8145 0 1.3652-.2988 1.6289-.8555zm-4.459-2.0449h3.4805c-.0234-1.1191-.6914-1.8574-1.6934-1.8574-1.0078 0-1.7109.7383-1.7871 1.8574zm1.3653-3.5156 1.0371-1.9922h1.207l-1.3535 1.9922zm6.8471.7676c1.3242 0 2.2441.6562 2.3789 1.6934h-.9961c-.1348-.5039-.627-.8379-1.3887-.8379-.75 0-1.3359.3809-1.3359.9434 0 .4336.3516.7031 1.0957.8848l.9727.2344c1.1895.2871 1.7637.8027 1.7637 1.7109 0 1.1309-1.0957 1.9102-2.5312 1.9102-1.4062 0-2.373-.6738-2.4844-1.7227h1.0371c.1699.5332.6738.873 1.4824.873.8496 0 1.459-.4043 1.459-.9844 0-.4336-.3281-.7266-1.002-.8906l-1.084-.2637c-1.1836-.2871-1.7227-.7969-1.7227-1.7109.0001-1.0489 1.0137-1.8399 2.3555-1.8399zm11.9942 4.0078h-3.3633l-.8496 2.4199h-1.1074l3.1172-8.4551h1.043l3.1172 8.4551h-1.1074zm-3.0528-.8965h2.7422l-1.3242-3.7734h-.0938zm11.9737.1582c0 1.9746-1.0488 3.2695-2.6543 3.2695-.9023 0-1.6289-.3926-1.9746-1.0605h-.0938v3.0586h-1.0078v-8.4258h.9609v1.0547h.0938c.4043-.7266 1.1602-1.166 2.0215-1.166 1.6113 0 2.6543 1.2832 2.6543 3.2695zm-1.043 0c0-1.4766-.6914-2.3613-1.8457-2.3613-1.1426 0-1.8633.9082-1.8633 2.3613 0 1.4473.7207 2.3613 1.8574 2.3613 1.1602 0 1.8516-.8847 1.8516-2.3613zm8.2358 0c0 1.9746-1.0488 3.2695-2.6543 3.2695-.9023 0-1.6289-.3926-1.9746-1.0605h-.0938v3.0586h-1.0078v-8.4258h.9609v1.0547h.0938c.4043-.7266 1.1602-1.166 2.0215-1.166 1.6114 0 2.6543 1.2832 2.6543 3.2695zm-1.0429 0c0-1.4766-.6914-2.3613-1.8457-2.3613-1.1426 0-1.8633.9082-1.8633 2.3613 0 1.4473.7207 2.3613 1.8574 2.3613 1.1602 0 1.8516-.8847 1.8516-2.3613zm2.5634-5.666h1.0078v8.8242h-1.0078zm8.0362 7.1894c-.293 1.0781-1.2773 1.7461-2.6602 1.7461-1.752 0-2.8477-1.2656-2.8477-3.2637 0-1.9863 1.1133-3.2754 2.8477-3.2754 1.7051 0 2.7422 1.2129 2.7422 3.1758v.3867h-4.541v.0469c.0527 1.248.75 2.0391 1.8223 2.0391.8145 0 1.3652-.2988 1.6289-.8555zm-4.459-2.0449h3.4805c-.0234-1.1191-.6914-1.8574-1.6934-1.8574-1.0078 0-1.7109.7383-1.7871 1.8574z" fill="#fff"/><path d="m0 0h99v44h-99z" fill="none"/></svg>