<svg enable-background="new 0 0 70 44" height="44" viewBox="0 0 70 44" width="70" xmlns="http://www.w3.org/2000/svg"><path d="m0 0h70v44h-70z" fill="none"/><path d="m2.9954 26v-7.5059h-2.7246v-.9492h6.5039v.9492h-2.7246v7.5059zm7.7314 0-3.1172-8.4551h1.1074l2.4844 7.0898h.0938l2.4844-7.0898h1.1074l-3.1172 8.4551zm13.981-.8438c-.7207.6328-1.7109 1.002-2.7363 1.002-1.6816 0-2.8594-.9961-2.8594-2.4141 0-1.002.5449-1.7637 1.6758-2.3613.0762-.0352.2344-.1172.3281-.1641-.7793-.8203-1.0605-1.3652-1.0605-1.9805 0-1.084.9199-1.8926 2.1562-1.8926 1.248 0 2.1562.7969 2.1562 1.9043 0 .8672-.5215 1.5-1.8281 2.1855l2.1152 2.2734c.2637-.5273.3984-1.2188.3984-2.2734v-.1465h.9844v.1523c0 1.3125-.2344 2.2676-.6973 2.9824l1.4708 1.5764h-1.3242zm-4.541-1.4824c0 .9492.7676 1.5938 1.8984 1.5938.7676 0 1.5586-.3047 2.0215-.791l-2.3906-2.6133c-.0645.0234-.2168.0996-.2988.1406-.8145.4219-1.2305 1.0078-1.2305 1.6699zm3.2109-4.3886c0-.6562-.4746-1.1016-1.1602-1.1016-.6738 0-1.1543.457-1.1543 1.1133 0 .4688.2402.8789.9082 1.541 1.0313-.5274 1.4063-.9492 1.4063-1.5527zm14.8281 6.7148v-6.457h-.0703l-2.666 6.457h-.8906l-2.666-6.457h-.0703v6.457h-.9844v-8.4551h1.2246l2.8945 7.0547h.0938l2.8945-7.0547h1.2246v8.4551zm2.5166-1.7695c0-1.1309.832-1.7812 2.3027-1.8691l1.8223-.1113v-.5742c0-.7793-.4863-1.207-1.4297-1.207-.7559 0-1.2832.2871-1.4238.7852h-1.0195c.1348-1.0137 1.1309-1.6816 2.4785-1.6816 1.541 0 2.4023.791 2.4023 2.1035v4.324h-.9609v-.9316h-.0938c-.4102.6738-1.1016 1.043-1.9453 1.043-1.2246-.0001-2.1328-.7266-2.1328-1.8809zm4.125-.586v-.5801l-1.6992.1113c-.9609.0645-1.3828.3984-1.3828 1.0312 0 .6445.5449 1.0195 1.2773 1.0195 1.0371.0002 1.8047-.6795 1.8047-1.5819zm2.5752-5.8828c0-.3867.3164-.7031.7031-.7031s.7031.3164.7031.7031-.3164.7031-.7031.7031-.7031-.3164-.7031-.7031zm.1992 1.9219h1.0078v6.3164h-1.0078zm5.019-.1113c1.3242 0 2.2441.6562 2.3789 1.6934h-.9961c-.1348-.5039-.627-.8379-1.3887-.8379-.75 0-1.3359.3809-1.3359.9434 0 .4336.3516.7031 1.0957.8848l.9727.2344c1.1895.2871 1.7637.8027 1.7637 1.7109 0 1.1309-1.0957 1.9102-2.5312 1.9102-1.4062 0-2.373-.6738-2.4844-1.7227h1.0371c.1699.5332.6738.873 1.4824.873.8496 0 1.459-.4043 1.459-.9844 0-.4336-.3281-.7266-1.002-.8906l-1.084-.2637c-1.1836-.2871-1.7227-.7969-1.7227-1.7109.0001-1.0489 1.0137-1.8399 2.3555-1.8399zm3.6358 3.2695c0-2.0332 1.1133-3.2695 2.9121-3.2695s2.9121 1.2363 2.9121 3.2695c0 2.0273-1.1133 3.2695-2.9121 3.2695s-2.9121-1.2422-2.9121-3.2695zm4.7812 0c0-1.5-.6738-2.3613-1.8691-2.3613s-1.8691.8613-1.8691 2.3613c0 1.4941.6738 2.3613 1.8691 2.3613s1.8691-.8672 1.8691-2.3613zm2.5049-3.1582h.9609v.9961h.0938c.3164-.6973.9316-1.1074 1.8984-1.1074 1.418 0 2.209.8379 2.209 2.3379v4.0898h-1.0078v-3.8438c0-1.1367-.4805-1.6758-1.4883-1.6758s-1.6582.6738-1.6582 1.7812v3.7384h-1.0078z" fill="#fff"/></svg>